<svg xmlns="http://www.w3.org/2000/svg" width="78.588" height="23.691" viewBox="0 0 78.588 23.691">
  <g id="Bitcoin" transform="translate(-0.026 -0.02)">
    <path id="path8316" d="M4.28,16.322c-.146,0-.385,0-.656-.01a9.594,9.594,0,0,1-1.068-.092,12.687,12.687,0,0,1-1.278-.249A6.471,6.471,0,0,1,0,15.516L3.593.5,6.811,0,5.524,5.33a5.04,5.04,0,0,1,.83-.289,3.805,3.805,0,0,1,.894-.1,3.949,3.949,0,0,1,1.723.351,3.5,3.5,0,0,1,1.207.951,4.011,4.011,0,0,1,.7,1.4,6.421,6.421,0,0,1,.228,1.735,6.958,6.958,0,0,1-.529,2.7,7.008,7.008,0,0,1-1.444,2.211,6.8,6.8,0,0,1-2.16,1.486A6.628,6.628,0,0,1,4.28,16.322ZM6.481,7.5a3.841,3.841,0,0,0-.758.1,1.917,1.917,0,0,0-.842.435L3.511,13.7c.081.013.153.027.218.04a1.591,1.591,0,0,0,.2.032,2.208,2.208,0,0,0,.25.012h.374a2.843,2.843,0,0,0,1.371-.351,3.615,3.615,0,0,0,1.112-.94,4.749,4.749,0,0,0,.736-1.334,4.521,4.521,0,0,0,.271-1.55,3.039,3.039,0,0,0-.333-1.549A1.311,1.311,0,0,0,6.481,7.5Z" transform="translate(16.819 0.02)" fill="#889099"/>
    <path id="path8318" d="M3.074,15.826H0L2.6,4.959h3.1L3.074,15.825Zm1.5-12.19a1.922,1.922,0,0,1-1.163-.382,1.355,1.355,0,0,1-.521-1.168,1.945,1.945,0,0,1,.176-.815A2.176,2.176,0,0,1,3.53.609,2.313,2.313,0,0,1,4.2.165,2.082,2.082,0,0,1,5.026,0,1.919,1.919,0,0,1,6.188.382a1.363,1.363,0,0,1,.519,1.167,1.918,1.918,0,0,1-.177.817,2.148,2.148,0,0,1-.466.662,2.279,2.279,0,0,1-.675.443A2.012,2.012,0,0,1,4.569,3.636Z" transform="translate(28.194 0.228)" fill="#889099"/>
    <path id="path8320" d="M2.332.5,5.551,0,4.76,3.2H8.208l-.623,2.52H4.158l-.913,3.8a4.28,4.28,0,0,0-.145.887,1.617,1.617,0,0,0,.1.713.9.9,0,0,0,.447.464,2.056,2.056,0,0,0,.924.166,4.9,4.9,0,0,0,.967-.094,6.787,6.787,0,0,0,.944-.258l.229,2.357a11.072,11.072,0,0,1-1.35.392,7.843,7.843,0,0,1-1.724.164,4.791,4.791,0,0,1-2.223-.421A2.465,2.465,0,0,1,.295,12.735,3.658,3.658,0,0,1,0,11.053a10.884,10.884,0,0,1,.29-2L2.332.5Z" transform="translate(34.246 1.984)" fill="#889099"/>
    <path id="path8322" d="M0,6.82A7.6,7.6,0,0,1,.457,4.174,6.5,6.5,0,0,1,1.767,2,6.123,6.123,0,0,1,3.833.538,6.624,6.624,0,0,1,6.542,0,7.181,7.181,0,0,1,8.213.176,6.769,6.769,0,0,1,9.554.64l-1.06,2.4c-.277-.112-.565-.21-.862-.3A3.776,3.776,0,0,0,6.543,2.6,3.053,3.053,0,0,0,4.1,3.657a4.209,4.209,0,0,0-.9,2.832,2.9,2.9,0,0,0,.458,1.7,1.919,1.919,0,0,0,1.682.65A5.42,5.42,0,0,0,6.5,8.719a5.714,5.714,0,0,0,1-.31l.229,2.458a11.015,11.015,0,0,1-1.288.4,7.183,7.183,0,0,1-1.683.173,5.7,5.7,0,0,1-2.18-.371,4.154,4.154,0,0,1-1.474-1A3.773,3.773,0,0,1,.261,8.594,6,6,0,0,1,0,6.82Z" transform="translate(42.319 4.896)" fill="#889099"/>
    <path id="path8324" d="M4.317,11.445a5.077,5.077,0,0,1-1.911-.33,3.558,3.558,0,0,1-1.339-.93,4.041,4.041,0,0,1-.8-1.415A5.7,5.7,0,0,1,0,6.965,8,8,0,0,1,.4,4.484a7.044,7.044,0,0,1,1.2-2.23A6.394,6.394,0,0,1,3.529.629,5.354,5.354,0,0,1,6.144,0a5.111,5.111,0,0,1,1.9.331,3.576,3.576,0,0,1,1.349.93,4.034,4.034,0,0,1,.8,1.416,5.716,5.716,0,0,1,.27,1.806,8.255,8.255,0,0,1-.393,2.481,7.169,7.169,0,0,1-1.164,2.23,6.126,6.126,0,0,1-1.92,1.622A5.517,5.517,0,0,1,4.317,11.445ZM5.854,2.6A1.957,1.957,0,0,0,4.649,3a3.417,3.417,0,0,0-.871.992A4.928,4.928,0,0,0,3.247,5.3a5.656,5.656,0,0,0-.175,1.353A3.3,3.3,0,0,0,3.4,8.265a1.279,1.279,0,0,0,1.205.578,1.947,1.947,0,0,0,1.205-.393,3.4,3.4,0,0,0,.871-.991,4.9,4.9,0,0,0,.532-1.312,5.726,5.726,0,0,0,.176-1.353,3.273,3.273,0,0,0-.333-1.612A1.275,1.275,0,0,0,5.854,2.6Z" transform="translate(51.655 4.897)" fill="#889099"/>
    <path id="path8326" d="M3.076,15.826H0L2.6,4.959h3.1L3.076,15.825ZM4.569,3.636a1.921,1.921,0,0,1-1.162-.382,1.358,1.358,0,0,1-.521-1.168,1.945,1.945,0,0,1,.177-.815A2.159,2.159,0,0,1,3.532.609,2.286,2.286,0,0,1,4.207.165,2.056,2.056,0,0,1,5.026,0,1.922,1.922,0,0,1,6.189.382a1.361,1.361,0,0,1,.52,1.167,1.957,1.957,0,0,1-.178.817,2.143,2.143,0,0,1-.465.662,2.321,2.321,0,0,1-.674.443A2.027,2.027,0,0,1,4.569,3.636Z" transform="translate(62.392 0.228)" fill="#889099"/>
    <path id="path8328" d="M2.513.744c.233-.068.494-.149.777-.238s.6-.171.957-.246A11.8,11.8,0,0,1,5.431.073,13.436,13.436,0,0,1,6.915,0,3.718,3.718,0,0,1,10.27,1.406a4.773,4.773,0,0,1,.323,3.842L9.179,11.116H6.086l1.37-5.744c.083-.359.149-.706.2-1.044a2.46,2.46,0,0,0-.011-.887,1.059,1.059,0,0,0-.383-.62,1.488,1.488,0,0,0-.926-.237,6.281,6.281,0,0,0-1.225.126L3.095,11.116H0L2.513.744Z" transform="translate(67.784 4.938)" fill="#889099"/>
    <path id="path8332" d="M3.828,4.244h-.6c-.02-.179-.037-.355-.056-.554s-.035-.373-.055-.536H1.256l-.6,1.089H0C.461,3.416.914,2.65,1.345,1.966S2.212.618,2.64,0h.585c.064.32.121.632.169.928.054.327.1.658.15.982.05.348.1.715.142,1.091.041.349.086.743.141,1.242ZM2.794.679c-.143.207-.323.478-.536.8s-.464.741-.725,1.191H3.058c-.031-.318-.069-.65-.113-.986S2.851,1.024,2.794.679Z" transform="translate(31.905 19.377)" fill="#889099"/>
    <path id="path8334" d="M1.618,4.433a1.968,1.968,0,0,1-.7-.116,1.351,1.351,0,0,1-.508-.331,1.372,1.372,0,0,1-.3-.517A2.142,2.142,0,0,1,0,2.786,3.17,3.17,0,0,1,.175,1.733a2.816,2.816,0,0,1,.5-.887A2.441,2.441,0,0,1,1.452.23,2.222,2.222,0,0,1,2.468,0a2.432,2.432,0,0,1,.766.1,1.763,1.763,0,0,1,.409.184L3.4.771A1.771,1.771,0,0,0,3.012.6,1.806,1.806,0,0,0,2.437.514a1.473,1.473,0,0,0-.763.2,1.912,1.912,0,0,0-.572.514,2.361,2.361,0,0,0-.357.71,2.613,2.613,0,0,0-.123.781q0,1.194,1.04,1.194a2.32,2.32,0,0,0,.4-.031,2.731,2.731,0,0,0,.311-.07,1.635,1.635,0,0,0,.24-.089l.185-.086.074.514a1.6,1.6,0,0,1-.194.092,2.46,2.46,0,0,1-.28.092,2.983,2.983,0,0,1-.357.07,3.025,3.025,0,0,1-.418.027Z" transform="translate(36.295 19.279)" fill="#889099"/>
    <path id="path8336" d="M1.618,4.433a1.968,1.968,0,0,1-.7-.116,1.351,1.351,0,0,1-.508-.331,1.372,1.372,0,0,1-.3-.517A2.142,2.142,0,0,1,0,2.786,3.17,3.17,0,0,1,.175,1.733a2.816,2.816,0,0,1,.5-.887A2.441,2.441,0,0,1,1.452.23,2.222,2.222,0,0,1,2.468,0a2.432,2.432,0,0,1,.766.1,1.763,1.763,0,0,1,.409.184L3.4.771A1.771,1.771,0,0,0,3.012.6,1.806,1.806,0,0,0,2.437.514a1.473,1.473,0,0,0-.763.2,1.912,1.912,0,0,0-.572.514,2.361,2.361,0,0,0-.357.71,2.613,2.613,0,0,0-.123.781q0,1.194,1.04,1.194a2.32,2.32,0,0,0,.4-.031,2.731,2.731,0,0,0,.311-.07,1.635,1.635,0,0,0,.24-.089l.185-.086.074.514a1.6,1.6,0,0,1-.194.092,2.46,2.46,0,0,1-.28.092,2.983,2.983,0,0,1-.357.07,3.025,3.025,0,0,1-.418.027Z" transform="translate(39.753 19.279)" fill="#889099"/>
    <path id="path8338" d="M0,4.243,1.022,0H3.538L3.422.5H1.5l-.308,1.28H2.9l-.117.484h-1.7L.714,3.747H2.782l-.117.5H0Z" transform="translate(43.024 19.377)" fill="#889099"/>
    <path id="path8340" d="M.6,4.286H0L1.009.1A3.376,3.376,0,0,1,1.557.019C1.749.006,1.933,0,2.1,0A1.874,1.874,0,0,1,3.227.282a.963.963,0,0,1,.379.82,1.544,1.544,0,0,1-.157.72,1.354,1.354,0,0,1-.446.5,2.071,2.071,0,0,1-.7.29,3.966,3.966,0,0,1-.9.1H.978L.6,4.285ZM2.03.5A3.167,3.167,0,0,0,1.5.526L1.1,2.21h.388a3.185,3.185,0,0,0,.529-.046A1.573,1.573,0,0,0,2.5,2a.977.977,0,0,0,.354-.322.917.917,0,0,0,.139-.529.536.536,0,0,0-.258-.5A1.41,1.41,0,0,0,2.03.5Z" transform="translate(46.239 19.334)" fill="#889099"/>
    <path id="path8342" d="M3.286,0,3.169.5H1.883l-.9,3.747h-.6L1.286.5H0L.117,0Z" transform="translate(50.199 19.377)" fill="#889099"/>
    <path id="path8344" d="M0,4.243,1.022,0H3.538L3.422.5H1.5l-.308,1.28H2.9l-.117.484h-1.7L.714,3.747H2.782l-.117.5H0Z" transform="translate(52.932 19.377)" fill="#889099"/>
    <path id="path8346" d="M1.089,4.329c-.167,0-.35-.008-.56-.025A3.025,3.025,0,0,1,0,4.218L.991.1a3.255,3.255,0,0,1,.547-.08c.2-.012.38-.018.548-.018A2,2,0,0,1,3.5.444a1.58,1.58,0,0,1,.467,1.2A3.124,3.124,0,0,1,3.8,2.653a2.36,2.36,0,0,1-.517.861,2.512,2.512,0,0,1-.9.594A3.481,3.481,0,0,1,1.089,4.329ZM2.037.5a3.4,3.4,0,0,0-.553.024L.7,3.8a1.091,1.091,0,0,0,.166.021c.082.007.21.01.382.01a2.286,2.286,0,0,0,.877-.162,1.878,1.878,0,0,0,.661-.454A2.053,2.053,0,0,0,3.2,2.52a2.543,2.543,0,0,0,.148-.878A1.115,1.115,0,0,0,3.034.8,1.417,1.417,0,0,0,2.037.5Z" transform="translate(56.156 19.334)" fill="#889099"/>
    <path id="path8348" d="M3.169,4.243h-.6l.474-1.971H1.071L.6,4.243H0L1.022,0h.6L1.188,1.776H3.164L3.594,0h.6L3.169,4.243Z" transform="translate(61.553 19.377)" fill="#889099"/>
    <path id="path8350" d="M0,4.243,1.022,0H3.538L3.421.5H1.495l-.308,1.28H2.9l-.117.484h-1.7L.713,3.747H2.781l-.117.5H0Z" transform="translate(65.664 19.377)" fill="#889099"/>
    <path id="path8352" d="M.6,4.286H0L1.01.1A3.252,3.252,0,0,1,1.557.018C1.754.006,1.938,0,2.1,0A1.89,1.89,0,0,1,3.188.275a.923.923,0,0,1,.4.808,1.329,1.329,0,0,1-.317.9,1.78,1.78,0,0,1-.889.524c.051.088.109.2.173.328s.132.276.2.441.139.331.2.5.12.334.172.5H2.523c-.057-.156-.117-.314-.178-.471s-.116-.294-.187-.46-.131-.293-.191-.413-.115-.229-.176-.339H1.786c-.052,0-.1.007-.155.009l-.16,0H1L.6,4.285ZM2.03.5A3.167,3.167,0,0,0,1.5.527l-.388,1.6h.364a3.806,3.806,0,0,0,.517-.037,1.574,1.574,0,0,0,.483-.144.94.94,0,0,0,.356-.3.86.86,0,0,0,.14-.511A.517.517,0,0,0,2.711.65,1.379,1.379,0,0,0,2.03.5Z" transform="translate(68.879 19.334)" fill="#889099"/>
    <path id="path8354" d="M0,4.243,1.022,0H3.538L3.421.5H1.495l-.308,1.28H2.9l-.117.484h-1.7L.713,3.747H2.781l-.117.5H0Z" transform="translate(72.512 19.377)" fill="#889099"/>
    <path id="circle8306" d="M8.2,16.321a8.16,8.16,0,1,1,8.2-8.16A8.19,8.19,0,0,1,8.2,16.321ZM6.7,11.3h0c.252.068.486.128.716.184l-.368,1.466.9.223.373-1.485a6.49,6.49,0,0,0,1.176.128,1.88,1.88,0,0,0,2-1.337,1.566,1.566,0,0,0-.827-2.173A1.435,1.435,0,0,0,11.819,7c.14-.934-.433-1.589-1.8-2.059l.368-1.472-.9-.223L9.123,4.675c-.2-.049-.42-.1-.721-.168l.361-1.443-.9-.223L7.5,4.312,7.4,4.29c-.155-.035-.319-.073-.48-.113L5.68,3.865l-.24.957c.24.054.646.149.654.16a.478.478,0,0,1,.419.522l-.42,1.676H6.1l.009,0a.7.7,0,0,1,.079.027l-.073-.019-.022-.005L5.5,9.535A.332.332,0,0,1,5.2,9.76a.453.453,0,0,1-.107-.013c-.038,0-.649-.16-.654-.162L3.989,10.61,5.16,10.9q.228.057.45.115l.192.05-.373,1.488.9.224.37-1.471Zm1.957-.78a6.242,6.242,0,0,1-1.489-.253l-.174-.045.494-1.972c.062.015.136.032.223.051.566.127,1.618.362,1.966.926a.8.8,0,0,1,.088.635C9.652,10.3,9.28,10.525,8.654,10.525Zm.4-2.93a4.883,4.883,0,0,1-1.2-.2l-.147-.038.448-1.788c.052.013.114.026.186.042.46.1,1.317.29,1.615.772a.756.756,0,0,1,.08.6C9.938,7.388,9.607,7.595,9.057,7.6Z" transform="translate(0.026 0.021)" fill="#889099"/>
  </g>
</svg>
