<svg id="ilo_light_announcements" data-name="ilo/light/announcements" xmlns="http://www.w3.org/2000/svg" width="60" height="60" viewBox="0 0 60 60">
  <g id="Shape" transform="translate(10.5 10.23)" fill="none" stroke-miterlimit="10">
    <path d="M34.563,22.889V15.205A15.143,15.143,0,0,0,25.03,1.143,19.764,19.764,0,0,0,19.209,0a17.124,17.124,0,0,0-5.558,1.143A14.91,14.91,0,0,0,4.118,15.215v7.674L.19,30.931a1.864,1.864,0,0,0,1.673,2.684h11.5V33.8a5.973,5.973,0,0,0,11.947,0v-.182H36.818a1.864,1.864,0,0,0,1.673-2.684Z" stroke="none"/>
    <path d="M 19.33596992492676 37.77005767822266 C 21.52694892883301 37.77005767822266 23.30943870544434 35.98756790161133 23.30943870544434 33.79658508300781 L 23.30943870544434 31.61486625671387 L 36.59935760498047 31.61486625671387 L 32.56319808959961 23.35101699829102 L 32.56319808959961 15.2056770324707 C 32.56258010864258 12.56690692901611 31.77958869934082 10.01763725280762 30.29887962341309 7.833477020263672 C 28.82276916503906 5.656115531921387 26.7529468536377 3.988548755645752 24.31188201904297 3.00972843170166 C 23.52556610107422 2.720927238464355 21.14479446411133 1.999996900558472 19.20925903320312 1.999996900558472 C 16.90851974487305 1.999996900558472 14.42511940002441 2.987366914749146 14.40331935882568 2.996126890182495 L 14.37251949310303 3.008327007293701 C 11.90764999389648 3.961166858673096 9.821329116821289 5.621226787567139 8.339119911193848 7.809046745300293 C 6.85690975189209 9.996867179870605 6.088839530944824 12.55002689361572 6.117949485778809 15.19249725341797 L 6.118069648742676 15.21452713012695 L 6.118069648742676 23.35101699829102 L 2.081911563873291 31.61486625671387 L 15.36249923706055 31.61486625671387 L 15.36249923706055 33.79658508300781 C 15.36249923706055 35.98756790161133 17.14498901367188 37.77005767822266 19.33596992492676 37.77005767822266 M 19.33596992492676 39.77005767822266 C 16.03691864013672 39.77005767822266 13.36249923706055 37.09564590454102 13.36249923706055 33.79658508300781 L 13.36249923706055 33.6148681640625 L 1.862869620323181 33.6148681640625 C 1.219759583473206 33.61454772949219 0.6222395896911621 33.28268814086914 0.2820695638656616 32.73689651489258 C -0.05810042098164558 32.19111633300781 -0.09286042302846909 31.50851631164551 0.1901195794343948 30.93099784851074 L 4.118069648742676 22.88870620727539 L 4.118069648742676 15.21452713012695 C 4.049549579620361 8.994606971740723 7.849509716033936 3.385676860809326 13.65138912200928 1.142856955528259 C 13.65138912200928 1.142856955528259 16.46818923950195 -3.068237219849834e-06 19.20925903320312 -3.068237219849834e-06 C 21.95034027099609 -3.068237219849834e-06 25.02986907958984 1.142856955528259 25.02986907958984 1.142856955528259 C 30.78540992736816 3.43839693069458 34.56174850463867 9.008776664733887 34.56319808959961 15.20520687103271 L 34.56319808959961 22.88870620727539 L 38.49114990234375 30.93099784851074 C 38.77412033081055 31.50851631164551 38.73936080932617 32.19111633300781 38.39918899536133 32.73689651489258 C 38.05902099609375 33.28268814086914 37.46150970458984 33.61454772949219 36.81838989257812 33.6148681640625 L 25.30943870544434 33.6148681640625 L 25.30943870544434 33.79658508300781 C 25.30943870544434 37.09564590454102 22.63502883911133 39.77005767822266 19.33596992492676 39.77005767822266 Z" stroke="none" fill="#46b843"/>
  </g>
  <path id="Line_Copy" data-name="Line Copy" d="M.571.25H29.143" transform="translate(14.786 43.018)" fill="none" stroke="#46b843" stroke-linecap="square" stroke-miterlimit="10" stroke-width="2"/>
</svg>
