<svg xmlns="http://www.w3.org/2000/svg" width="29.995" height="29.993" viewBox="0 0 29.995 29.993">
  <g id="_2SL" data-name="2SL" transform="translate(-0.003 -0.007)">
    <path id="Shape" d="M14.654,0A15,15,0,1,1,0,14.993,15,15,0,0,1,14.654,0Z" transform="translate(0.003 0.007)" fill="#323642"/>
    <path id="Shape-2" data-name="Shape" d="M10.011,20.055a12.151,12.151,0,0,1-5.065-1.7,7.7,7.7,0,0,1-3.121-3.441,5.733,5.733,0,0,1-.385-3.282.224.224,0,0,0-.115-.263A2.717,2.717,0,0,1,.036,9.5a2.54,2.54,0,0,1,3.1-2.948,8.171,8.171,0,0,1,1.3.566.246.246,0,0,0,.29,0,11.417,11.417,0,0,1,4.12-1.732A11.669,11.669,0,0,1,11.36,5.1c.167,0,.2-.089.239-.214q.676-2.157,1.358-4.312a.668.668,0,0,1,.926-.541c1.256.268,2.511.532,3.765.806A.3.3,0,0,0,18,.726,2,2,0,0,1,21.244,1a1.965,1.965,0,0,1-1.452,2.883,2.015,2.015,0,0,1-2.251-1.464.385.385,0,0,0-.354-.32c-.968-.2-1.932-.411-2.9-.619-.076-.016-.155-.025-.252-.041-.4,1.258-.8,2.5-1.215,3.784l.666.069A11.453,11.453,0,0,1,18.725,7.12a.181.181,0,0,0,.258-.018A2.554,2.554,0,0,1,21.8,6.718a2.489,2.489,0,0,1,1.529,2.171,2.559,2.559,0,0,1-1.181,2.382.453.453,0,0,0-.216.506,5.9,5.9,0,0,1-1.5,4.844A10.325,10.325,0,0,1,14.7,19.829a13.539,13.539,0,0,1-2.981.333A13.722,13.722,0,0,1,10.011,20.055Z" transform="translate(3.424 5.564)" fill="#fff"/>
  </g>
</svg>
