<svg xmlns="http://www.w3.org/2000/svg" width="34" height="22" viewBox="0 0 34 22">
  <path id="Shape" d="M3.137,18.813A10.631,10.631,0,0,1,0,11,10.633,10.633,0,0,1,3.137,3.187,10.3,10.3,0,0,1,10.827,0a10.074,10.074,0,0,1,7.286,2.878L15.179,5.757a5.9,5.9,0,0,0-4.351-1.645A6.537,6.537,0,0,0,6.071,6.169,7.158,7.158,0,0,0,4.047,11.1a6.8,6.8,0,0,0,2.024,4.935,6.537,6.537,0,0,0,4.756,2.057,6.982,6.982,0,0,0,4.048-1.234A5.14,5.14,0,0,0,17,13.364H10.827v-3.8h10.22a11.443,11.443,0,0,1,.2,1.85c0,3.187-.911,5.757-2.934,7.608A9.979,9.979,0,0,1,10.827,22,10.3,10.3,0,0,1,3.137,18.813Zm24.691-2.878V12.748H24.691V9.561h3.136V6.374h3.137V9.561H34v3.187H30.965v3.187Z" fill="#323642"/>
</svg>
