<svg id="Group" xmlns="http://www.w3.org/2000/svg" width="28" height="28" viewBox="0 0 28 28">
  <path id="LinkedIn__x28_alt_x29_-path" d="M26.271,0H2.247A2.1,2.1,0,0,0,0,1.9V26.046A2.149,2.149,0,0,0,2.247,28H26.271A1.717,1.717,0,0,0,28,26.046V1.9A1.671,1.671,0,0,0,26.271,0Z" fill="#323642"/>
  <path id="LinkedIn__x28_alt_x29_" d="M11.075,18.961H6.867c0-.1.056-11.457,0-12.728h4.207V7.965A4.459,4.459,0,0,1,15,5.861a4.742,4.742,0,0,1,3.545,1.4,6.152,6.152,0,0,1,1.443,4.331v7.369H15.529V12.079c0-1.91-.713-2.879-2.118-2.879a2.37,2.37,0,0,0-2.189,1.548,2.754,2.754,0,0,0-.148,1.031V18.96Zm-7,0H.257V6.233H4.074V18.959ZM2.382,4.324H2.354A2.161,2.161,0,0,1,0,2.174,2.2,2.2,0,0,1,2.409,0,2.188,2.188,0,0,1,4.791,2.161,2.2,2.2,0,0,1,2.382,4.324Z" transform="translate(4.198 4.586)" fill="#fff"/>
</svg>
