<svg xmlns="http://www.w3.org/2000/svg" width="28" height="23" viewBox="0 0 28 23">
  <path id="Shape" d="M28,2.721a11.371,11.371,0,0,1-3.3.915A5.822,5.822,0,0,0,27.227.425a11.5,11.5,0,0,1-3.65,1.41A5.7,5.7,0,0,0,19.385,0,5.777,5.777,0,0,0,13.64,5.807a5.887,5.887,0,0,0,.149,1.324A16.248,16.248,0,0,1,1.951,1.062,5.859,5.859,0,0,0,3.729,8.815a5.7,5.7,0,0,1-2.6-.729v.073a5.8,5.8,0,0,0,4.607,5.7,5.757,5.757,0,0,1-1.513.2,5.454,5.454,0,0,1-1.081-.108A5.756,5.756,0,0,0,8.5,17.984,11.443,11.443,0,0,1,1.37,20.466,12.073,12.073,0,0,1,0,20.387,16.105,16.105,0,0,0,8.8,23c10.566,0,16.342-8.85,16.342-16.526l-.019-.752A11.542,11.542,0,0,0,28,2.721Z" fill="#323642"/>
</svg>
