<svg xmlns="http://www.w3.org/2000/svg" width="65.468" height="50.921" viewBox="0 0 65.468 50.921">
  <g id="mc_vrt_pos" transform="translate(-0.517 -0.514)">
    <path id="Shape" d="M60.346,7.485a.529.529,0,0,1,0-.416.537.537,0,0,1,.292-.281.573.573,0,0,1,.23-.04h-.007a.557.557,0,0,1,.2.04.569.569,0,0,1,.175.113.563.563,0,0,1,.118.168.522.522,0,0,1,0,.416.567.567,0,0,1-.118.169.587.587,0,0,1-.175.113.527.527,0,0,1-.213.045A.561.561,0,0,1,60.346,7.485Zm-35.58.2c-1.382,0-1.866-.742-1.866-1.989V3.226h-1.09V2.158h1.067V.528h1.181v1.63H25.98l.012,1.067H24.081V5.676c0,.539.213.9.775.9a2.168,2.168,0,0,0,1.034-.3l.337,1a2.742,2.742,0,0,1-1.452.416Zm-8.542-.719.563-.911a2.864,2.864,0,0,0,1.787.563c.8,0,1.226-.237,1.226-.652,0-.3-.3-.472-.945-.562l-.562-.078c-1.2-.169-1.855-.708-1.855-1.585,0-1.068.888-1.72,2.248-1.72a4.02,4.02,0,0,1,2.191.562l-.517.944a3.464,3.464,0,0,0-1.686-.461c-.641,0-1.023.27-1.023.63s.4.461.911.528l.562.078C20.293,4.473,21,4.89,21,5.912s-.9,1.753-2.451,1.753l-.109,0A3.877,3.877,0,0,1,16.224,6.969Zm21.713-.1a2.714,2.714,0,0,1-.812-2.038V4.811A2.713,2.713,0,0,1,39.991,2a2.807,2.807,0,0,1,1.933.641l-.562.944a2.356,2.356,0,0,0-1.4-.483,1.725,1.725,0,0,0,0,3.439,2.356,2.356,0,0,0,1.4-.483L41.924,7a2.807,2.807,0,0,1-1.933.641q-.077,0-.154,0A2.715,2.715,0,0,1,37.937,6.872ZM29.7,7.643a2.81,2.81,0,1,1-.079-5.62l.017.011a2.555,2.555,0,0,1,2.552,2.811v.449H28.194A1.49,1.49,0,0,0,29.8,6.609a2.558,2.558,0,0,0,1.562-.562l.563.865a3.264,3.264,0,0,1-2.064.735Q29.779,7.647,29.7,7.643Zm26.4,0a2.81,2.81,0,0,1,0-5.62,2.038,2.038,0,0,1,1.686.787V0H58.9V7.508H57.777V6.856a2.037,2.037,0,0,1-1.61.788Zm-10.875,0a2.81,2.81,0,0,1,0-5.62A2.04,2.04,0,0,1,46.9,2.81V2.158h1.168v5.35H46.9V6.856a2.04,2.04,0,0,1-1.611.788Zm-32.96,0a2.81,2.81,0,0,1,0-5.62,2.039,2.039,0,0,1,1.686.787V2.158h1.169v5.35H13.943V6.856a2.038,2.038,0,0,1-1.61.788ZM7.339,4.563c0-.91-.382-1.416-1.18-1.416A1.263,1.263,0,0,0,4.845,4.575V7.553H3.664V4.563c0-.91-.393-1.416-1.169-1.416A1.259,1.259,0,0,0,1.18,4.575V7.53H0V2.158H1.169v.663a1.775,1.775,0,0,1,1.573-.8,1.971,1.971,0,0,1,1.776.955,2.082,2.082,0,0,1,1.888-.955A2,2,0,0,1,8.519,4.159V7.53l-1.18.023ZM49.612,7.53V2.158H50.77V2.81a1.583,1.583,0,0,1,1.416-.787L52.163,2a2.492,2.492,0,0,1,.832.146l-.359,1.124a1.9,1.9,0,0,0-.731-.135c-.742,0-1.124.495-1.124,1.382V7.53Zm-16.235,0V2.158h1.157V2.81a1.584,1.584,0,0,1,1.417-.787L35.928,2a2.5,2.5,0,0,1,.832.146L36.4,3.271a1.9,1.9,0,0,0-.731-.135c-.742,0-1.124.495-1.124,1.382V7.53Z" transform="translate(3.908 43.624)" fill="#889099"/>
    <path id="_Path_" d="M25.005,20.235a20.2,20.2,0,0,1,7.727-15.91,20.231,20.231,0,1,0,0,31.814,20.2,20.2,0,0,1-7.727-15.9Z" transform="translate(0.517 0.517)" fill="#889099" opacity="0.4"/>
    <path id="Shape-2" data-name="Shape" d="M32.736,20.237A20.231,20.231,0,0,1,0,36.141,20.231,20.231,0,0,0,7.73,20.234,20.231,20.231,0,0,0,0,4.327a20.231,20.231,0,0,1,32.736,15.9Z" transform="translate(33.25 0.514)" fill="#889099"/>
    <path id="Combined_Shape" data-name="Combined Shape" d="M8,32.5A20.5,20.5,0,0,1,8,0a20.466,20.466,0,0,1,8,16.249A20.466,20.466,0,0,1,8,32.5Z" transform="translate(25.43 4.68)" fill="#889099" opacity="0.65"/>
    <path id="Shape-3" data-name="Shape" d="M1.585.2l-.22.511H1.214L.995.2V.787H.849V0h.18l.236.562L1.5,0h.2V.787L1.585.792ZM.286.787V.135H0V0H.669V.135H.405V.787Z" transform="translate(63.647 32.497)" fill="#889099"/>
  </g>
</svg>
