<svg id="icon_comment" data-name="icon/comment" xmlns="http://www.w3.org/2000/svg" width="16.727" height="16" viewBox="0 0 16.727 16">
  <g id="Comment_2" transform="translate(2.788 2.667)" fill="none" stroke-miterlimit="10">
    <path d="M10.455,0H.7A.719.719,0,0,0,0,.713V8.032a.654.654,0,0,0,.7.635h.7v1.584c0,.376.282.439.629.277L5.771,8.667h4.684a.654.654,0,0,0,.7-.635V.713A.719.719,0,0,0,10.455,0Z" stroke="none"/>
    <path d="M 1.499997138977051 1.5 L 1.499997138977051 7.166670322418213 L 2.893937110900879 7.166670322418213 L 2.893937110900879 8.420156478881836 L 5.419087409973145 7.166670322418213 L 9.651517868041992 7.166670322418213 L 9.651517868041992 1.5 L 1.499997138977051 1.5 M 0.6969671249389648 0 L 10.45454788208008 0 C 10.83787727355957 0 11.15151786804199 0.3386707305908203 11.15151786804199 0.7133302688598633 L 11.15151786804199 8.032000541687012 C 11.15151786804199 8.406670570373535 10.83787727355957 8.666669845581055 10.45454788208008 8.666669845581055 L 5.770907402038574 8.666669845581055 L 2.022607803344727 10.52733039855957 C 1.675514221191406 10.69000148773193 1.393937110900879 10.62666893005371 1.393937110900879 10.25067043304443 L 1.393937110900879 8.666669845581055 L 0.6969671249389648 8.666669845581055 C 0.3136377334594727 8.666669845581055 -2.86102294921875e-06 8.406670570373535 -2.86102294921875e-06 8.032000541687012 L -2.86102294921875e-06 0.7133302688598633 C -2.86102294921875e-06 0.3386707305908203 0.3136377334594727 0 0.6969671249389648 0 Z" stroke="none" fill="#889099"/>
  </g>
</svg>
