<svg id="ilo_light_announcements" data-name="ilo/light/announcements" xmlns="http://www.w3.org/2000/svg" width="60" height="60" viewBox="0 0 60 60">
  <g id="Group" transform="translate(9.5 10)">
    <g id="Combined_Shape" data-name="Combined Shape" transform="translate(0.87)" fill="none" stroke-miterlimit="10">
      <path d="M33.59,40a1.3,1.3,0,0,1-1.275-1.265A32.412,32.412,0,0,0,1.265,7.641,1.3,1.3,0,0,1,0,6.366V1.231A1.231,1.231,0,0,1,1.265,0a39.85,39.85,0,0,1,27,11.718A39.9,39.9,0,0,1,39.977,38.735,1.23,1.23,0,0,1,38.75,40ZM19.975,40a1.331,1.331,0,0,1-1.292-1.26,18.656,18.656,0,0,0-5.447-12.025A18.616,18.616,0,0,0,1.255,21.26,1.328,1.328,0,0,1,0,19.966V14.833a1.213,1.213,0,0,1,1.255-1.222,26.266,26.266,0,0,1,17.387,7.717A26.361,26.361,0,0,1,26.36,38.735,1.216,1.216,0,0,1,25.142,40Z" stroke="none"/>
      <path d="M 37.94477462768555 38.00025177001953 C 37.45499420166016 28.61749458312988 33.53372573852539 19.81326293945312 26.84951019287109 13.13164234161377 C 20.17402839660645 6.448829174041748 11.37685871124268 2.526199102401733 1.999999761581421 2.033258199691772 L 1.999999761581421 5.674050807952881 C 10.39682388305664 6.160563945770264 18.28335189819336 9.706514358520508 24.27145004272461 15.70263290405273 C 30.26005935668945 21.69927215576172 33.79957962036133 29.59663772583008 34.28158187866211 38.00025177001953 L 37.94477462768555 38.00025177001953 M 24.30792808532715 38.00025177001953 C 23.83557319641113 32.24764251708984 21.34024429321289 26.8569393157959 17.22673988342285 22.74096298217773 C 13.11761474609375 18.62485694885254 7.738064289093018 16.13045692443848 1.999999761581421 15.66250228881836 L 1.999999761581421 19.31501960754395 C 6.775619983673096 19.77787399291992 11.24813270568848 21.8901481628418 14.65109634399414 25.30307006835938 C 18.0590877532959 28.70293617248535 20.16755294799805 33.19118499755859 20.62848663330078 38.00025177001953 L 24.30792808532715 38.00025177001953 M 38.7495002746582 40.00025177001953 L 33.58979797363281 40.00025177001953 C 32.89725112915039 40.00025177001953 32.34194946289062 39.42560195922852 32.31449890136719 38.73530197143555 C 31.66964912414551 21.89045333862305 18.08729934692383 8.293252944946289 1.264949679374695 7.64075231552124 C 0.5723997354507446 7.613302707672119 -2.716064386731887e-07 7.055752277374268 -2.716064386731887e-07 6.365902423858643 L -2.716064386731887e-07 1.230952501296997 C -2.716064386731887e-07 0.5406525731086731 0.5724014043807983 -0.02184752561151981 1.264949679374695 0.0006524993805214763 C 11.78730010986328 0.3332025110721588 21.29489898681641 4.740952491760254 28.26449966430664 11.71820259094238 C 35.2322998046875 18.68330192565918 39.64725112915039 28.2080020904541 39.97710037231445 38.73530197143555 C 39.99959945678711 39.42560195922852 39.43980026245117 40.00025177001953 38.7495002746582 40.00025177001953 Z M 25.14239883422852 40.00025177001953 L 19.97459983825684 40.00025177001953 C 19.28474998474121 40.00025177001953 18.72719955444336 39.42560195922852 18.68219947814941 38.74025344848633 C 18.37979888916016 34.19300079345703 16.47224998474121 29.94320297241211 13.23495006561279 26.71535301208496 C 10.00484943389893 23.47580337524414 5.772599697113037 21.56330299377441 1.255049705505371 21.26045227050781 C 0.5674497485160828 21.21320343017578 -2.716064386731887e-07 20.65565299987793 -2.716064386731887e-07 19.9658031463623 L -2.716064386731887e-07 14.83310222625732 C -2.716064386731887e-07 14.14055252075195 0.5674510598182678 13.58074188232422 1.255049705505371 13.61090278625488 C 8.032499313354492 13.92815208435059 14.14484977722168 16.82300186157227 18.64214897155762 21.32795333862305 C 23.15205001831055 25.84055328369141 26.03474998474121 31.95785331726074 26.35964965820312 38.73530197143555 C 26.39204978942871 39.42560195922852 25.83225059509277 40.00025177001953 25.14239883422852 40.00025177001953 Z" stroke="none" fill="#46b843"/>
    </g>
    <circle id="Oval_3" data-name="Oval 3" cx="5.217" cy="5.217" r="5.217" transform="translate(0 29.565)" fill="none" stroke="#46b843" stroke-miterlimit="10" stroke-width="2"/>
  </g>
</svg>
